<?xml version="1.0" encoding="utf-8"?>
<!-- Generator: Adobe Illustrator 22.1.0, SVG Export Plug-In . SVG Version: 6.00 Build 0)  -->
<svg version="1.1" id="OBJECTS" xmlns="http://www.w3.org/2000/svg" xmlns:xlink="http://www.w3.org/1999/xlink" x="0px" y="0px"
	 viewBox="0 0 500 500" style="enable-background:new 0 0 500 500;" xml:space="preserve">
<style type="text/css">
	.st0{fill:none;stroke:#AD9CEF;stroke-width:2;stroke-miterlimit:10;}
	.st1{fill:none;stroke:#AD9CEF;stroke-width:2;stroke-miterlimit:10;stroke-dasharray:5;}
	.st2{opacity:0.4;fill:#FFFFFF;}
	.st3{fill:#B9EADC;}
	.st4{fill:#9FDFCF;}
	.st5{fill:none;stroke:#4C2E93;stroke-width:2;stroke-miterlimit:10;}
	.st6{fill-rule:evenodd;clip-rule:evenodd;fill:#E65A64;}
	.st7{fill:#F2F2F2;}
	.st8{fill:#AD9CEF;}
	.st9{font-family:'Nunito-ExtraLight';}
	.st10{font-size:29.2826px;}
	.st11{letter-spacing:2;}
	.st12{fill:none;stroke:#EEC400;stroke-miterlimit:10;}
</style>
<g>
	<path class="st0" d="M132.2,196.1c0-67,52.2-121.3,116.6-121.3c64.4,0,116.6,54.3,116.6,121.3"/>
	<path class="st1" d="M365.5,203.5c0,67-52.2,121.3-116.6,121.3s-116.6-54.3-116.6-121.3"/>
	<line class="st0" x1="118.3" y1="200" x2="151.2" y2="200"/>
	<line class="st0" x1="349.1" y1="200" x2="382" y2="200"/>
	<line class="st0" x1="357.3" y1="196.1" x2="373.7" y2="196.1"/>
	<line class="st0" x1="124" y1="196.1" x2="140.5" y2="196.1"/>
</g>
<g>
	<circle class="st2" cx="155.2" cy="78.3" r="36.9"/>
	<circle class="st2" cx="101.6" cy="53.2" r="11.8"/>
</g>
<g>
	<circle class="st2" cx="426.8" cy="156.6" r="20.9"/>
	<path class="st2" d="M405.9,125c0,3.6-3,6.6-6.6,6.6c-3.6,0-6.6-3-6.6-6.6c0-3.6,3-6.6,6.6-6.6C402.9,118.4,405.9,121.3,405.9,125z
		"/>
	<path class="st2" d="M397.2,145.3c0,2-1.7,3.7-3.7,3.7c-2,0-3.7-1.7-3.7-3.7c0-2,1.7-3.7,3.7-3.7
		C395.6,141.6,397.2,143.3,397.2,145.3z"/>
</g>
<g>
	<polygon class="st3" points="186.1,124.3 219.9,138 219.9,235.8 186.1,221 	"/>
	<polygon class="st4" points="219.9,138 251.5,124.3 251.5,223.5 219.9,235.8 	"/>
	<polygon class="st3" points="251.5,124.3 285.3,140.6 285.3,238.4 251.5,223.6 	"/>
	<polygon class="st4" points="285.3,140.6 316.9,127 316.9,226.2 285.3,238.5 	"/>
</g>
<path class="st5" d="M179.3,169.8c0,0,35-16.7,58.9,8.1c23.8,24.9,59.8,35.7,84.7,2.7"/>
<path class="st5" d="M275.8,128.8c-9.4,10.6-11.8,27.5,0.9,36.7c3.9,2.8,9,3.8,13.3,1.6c4.5-2.3,7.3-6.3,12.4-7.4
	c4.2-0.9,8.6-0.3,12.9,0.1c8.4,0.9,17.9,1.8,22.1-7.2"/>
<path class="st5" d="M172.4,201.2c0,0,21.8-14.2,37.7,0c15.8,14.2,15.3,51,48.6,37.2"/>
<path class="st6" d="M279.5,90.5c0-15.9-12.5-28.8-28-28.8c-15.4,0-28,12.9-28,28.8c0,3.5,0.6,6.8,1.7,9.9h0l0.1,0.2
	c0.9,2.4,2.1,4.7,3.5,6.8l21.6,41.2l23.7-41.3c0.9-1.4,1.8-2.8,2.5-4.3l1.4-2.5h-0.4C278.9,97.3,279.5,94,279.5,90.5z M251.1,111
	c-11.1,0-20.1-9-20.1-20.1c0-11.1,9-20.1,20.1-20.1c11.1,0,20.1,9,20.1,20.1C271.2,102.1,262.2,111,251.1,111z"/>
<g>
	<path class="st7" d="M247.3,82.2l2.5,3.8c0.7,1,1.2,1.9,1.8,2.9h0.1c0.6-1.1,1.2-2,1.7-2.9l2.5-3.7h3.4l-6,8.5l6.2,9.1h-3.6l-2.6-4
		c-0.7-1-1.3-2-1.9-3h-0.1c-0.6,1.1-1.2,2-1.9,3l-2.5,4h-3.5l6.2-9l-6-8.6H247.3z"/>
</g>
<g>
	<text transform="matrix(0.9911 -0.1328 0.1328 0.9911 334.5592 76.4221)" class="st8 st9 st10 st11">x</text>
</g>
<path class="st12" d="M375.8,85.5c0.6,2.1-0.5,4.2-2.6,4.9s-4.2-0.5-4.9-2.6s0.5-4.2,2.6-4.9C373,82.3,375.2,83.4,375.8,85.5z"/>
<path class="st12" d="M345.2,41.8c0.5,1.8-0.5,3.6-2.2,4.2c-1.8,0.5-3.6-0.5-4.2-2.2c-0.5-1.8,0.5-3.6,2.2-4.2
	C342.8,39.1,344.6,40.1,345.2,41.8z"/>
<g>
	<text transform="matrix(0.9866 0.1631 -0.1631 0.9866 107.6127 313.9756)" class="st8 st9 st10 st11">x</text>
</g>
<path class="st12" d="M127.9,283.9c0,1.8-1.5,3.3-3.3,3.3c-1.8,0-3.3-1.5-3.3-3.3c0-1.8,1.5-3.3,3.3-3.3
	C126.4,280.6,127.9,282.1,127.9,283.9z"/>
<g>
	<text transform="matrix(0.8589 -0.5121 0.5121 0.8589 369.7743 270.2509)" class="st8 st9 st10 st11">x</text>
</g>
<circle class="st12" cx="382" cy="235.3" r="3.9"/>
<g>
	<text transform="matrix(0.9933 0.1159 -0.1159 0.9933 94.831 144.2233)" class="st8 st9 st10 st11">x</text>
</g>
<path class="st12" d="M126.1,156.6c0,2.2-1.7,3.9-3.9,3.9c-2.2,0-3.9-1.7-3.9-3.9c0-2.2,1.7-3.9,3.9-3.9
	C124.3,152.7,126.1,154.5,126.1,156.6z"/>
</svg>
