<?xml version="1.0" encoding="utf-8"?>
<!-- Generator: Adobe Illustrator 22.1.0, SVG Export Plug-In . SVG Version: 6.00 Build 0)  -->
<svg version="1.1" id="Capa_1" xmlns="http://www.w3.org/2000/svg" xmlns:xlink="http://www.w3.org/1999/xlink" x="0px" y="0px"
	 viewBox="0 0 488.2 488.2" style="enable-background:new 0 0 488.2 488.2;" xml:space="preserve">
<style type="text/css">
	.st0{fill:#A8AAE1;}
</style>
<path class="st0" d="M124.6,222.9H12.3c-5.7,0-10.3,4.6-10.3,10.3v229.7c0,5.7,4.6,10.3,10.3,10.3h112.3c5.7,0,10.3-4.6,10.3-10.3
	V233.2C134.9,227.5,130.3,222.9,124.6,222.9z M114.3,452.6H22.5V243.4h91.8V452.6z"/>
<path class="st0" d="M300.3,15H187.9c-5.6,0.1-10.2,4.7-10.2,10.3v437.6c0,5.7,4.6,10.3,10.3,10.3h112.3c5.7,0,10.3-4.6,10.3-10.3
	V25.3C310.6,19.6,306,15,300.3,15z M290,452.7h-91.8V35.6H290V452.7z"/>
<path class="st0" d="M486.2,462.8V168.1c0-5.7-4.6-10.3-10.3-10.3H363.6c-5.7,0-10.3,4.6-10.3,10.3v294.8c0,5.7,4.6,10.3,10.3,10.3
	h110.3l2-0.1C481.6,473.1,486.2,468.5,486.2,462.8z M465.7,452.7h-91.8V178.4h91.8V452.7z"/>
</svg>
