<?xml version="1.0" encoding="utf-8"?>
<!-- Generator: Adobe Illustrator 22.1.0, SVG Export Plug-In . SVG Version: 6.00 Build 0)  -->
<svg version="1.1" id="Слой_1" xmlns="http://www.w3.org/2000/svg" xmlns:xlink="http://www.w3.org/1999/xlink" x="0px" y="0px"
	 viewBox="0 0 512 512" style="enable-background:new 0 0 512 512;" xml:space="preserve">
<style type="text/css">
	.st0{fill:#E65A64;}
	.st1{fill:#FFFFFF;}
</style>
<circle class="st0" cx="256" cy="256" r="256"/>
<path class="st1" d="M257.9,290.3c41.4,0,74.9-33.6,74.9-74.9s-33.6-74.9-74.9-74.9S183,174.1,183,215.4S216.6,290.3,257.9,290.3z
	 M257.9,153c34.4,0,62.4,28,62.4,62.4s-28,62.4-62.4,62.4s-62.4-28-62.4-62.4S223.5,153,257.9,153z"/>
<path class="st1" d="M154.2,197.4c-3.3,5.1-7.2,11-7.2,18s3.9,12.9,7.2,18c2,3.1,3.9,6,4.6,8.5c0.8,2.8,0.5,6.4,0.3,10.1
	c-0.3,6-0.8,12.9,2.7,18.8c3.4,5.9,9.6,9,15.1,11.8c3.3,1.7,6.5,3.3,8.5,5.3c1.9,1.9,3.5,5.1,5.3,8.5c2.8,5.4,5.9,11.6,11.8,15.1
	c1,0.6,2.1,1.1,3.2,1.4v106.7c0,2.3,1.3,4.4,3.2,5.4c1.9,1.1,4.4,1.1,6.4-0.1l42.8-26l42.8,26c1,0.6,2.1,0.9,3.3,0.9
	c1.1,0,2.1-0.3,3.1-0.8c2-1.1,3.2-3.2,3.2-5.4v-74c0-3.4-2.8-6.3-6.3-6.3s-6.3,2.8-6.3,6.3v62.9l-12.6-7.6v-86.6
	c2.7-0.6,6-0.3,9.5-0.2c1,0.1,2,0.1,3,0.2v54.5c0,3.4,2.8,6.3,6.3,6.3s6.3-12.6,6.3-16.1v-46c1.1-0.4,2.1-0.8,3.2-1.4
	c5.9-3.4,9-9.6,11.8-15.1c1.7-3.3,3.3-6.5,5.3-8.5c1.9-1.9,5.1-3.5,8.5-5.3c5.4-2.8,11.6-5.9,15.1-11.8c3.4-5.9,3-12.7,2.7-18.8
	c-0.3-3.9-0.4-7.5,0.3-10.1c0.7-2.5,2.6-5.4,4.6-8.5c3.3-5.1,7.2-11,7.2-18c0-7-3.9-12.9-7.2-18c-2-3.1-3.9-6-4.6-8.5
	c-0.8-2.8-0.5-6.4-0.3-10.2c0.3-6,0.8-12.9-2.7-18.8c-3.4-5.9-9.6-9-15.1-11.8c-3.3-1.7-6.5-3.3-8.5-5.3c-1.9-1.9-3.5-5.1-5.3-8.5
	c-2.8-5.4-5.9-11.6-11.8-15.1c-5.9-3.4-12.7-3-18.8-2.7c-3.9,0.3-7.5,0.4-10.1-0.3c-2.5-0.7-5.4-2.6-8.5-4.6c-5.1-3.3-11-7.2-18-7.2
	c-7,0-12.9,3.9-18,7.2c-3.1,2-6,3.9-8.5,4.6c-2.8,0.8-6.4,0.5-10.1,0.3c-6-0.3-12.9-0.8-18.8,2.7c-5.9,3.4-9,9.6-11.8,15.1
	c-1.7,3.3-3.3,6.5-5.3,8.5c-1.9,1.9-5.1,3.5-8.5,5.3c-5.4,2.8-11.6,5.9-15.1,11.8c-3.4,5.9-3,12.7-2.7,18.8
	c0.3,3.9,0.4,7.5-0.3,10.1C158.1,191.4,156.2,194.3,154.2,197.4z M218.2,314.3c1,0,2-0.1,3-0.2c3.5-0.2,6.9-0.3,9.5,0.2v86.6
	l-12.6,7.6V314.3z M254.7,386.4l-11.4,6.9v-72c4.3,2.7,9.1,5,14.6,5c5.5,0,10.4-2.3,14.6-5v72l-11.4-6.9
	C259.2,385.1,256.7,385.1,254.7,386.4z M164.7,204.3c2.5-3.8,5.1-7.7,6.3-12.2c1.3-4.7,1-9.5,0.8-14.1c-0.3-4.7-0.5-9.1,1-11.8
	c1.6-2.7,5.6-4.8,9.8-6.9c4.1-2.1,8.4-4.2,11.7-7.6c3.3-3.3,5.5-7.6,7.6-11.7c2.1-4.3,4.1-8.3,6.9-9.8c2.7-1.5,7.1-1.3,11.8-1
	c4.6,0.3,9.5,0.5,14.1-0.8c4.5-1.2,8.5-3.8,12.2-6.3c4-2.7,7.8-5.1,11-5.1c3.3,0,7.1,2.5,11,5.1c3.8,2.5,7.7,5.1,12.2,6.3
	c4.7,1.3,9.5,1,14.1,0.8c4.7-0.3,9.1-0.5,11.8,1c2.7,1.6,4.8,5.6,6.9,9.8c2.1,4.1,4.2,8.4,7.6,11.7c3.3,3.3,7.6,5.5,11.7,7.6
	c4.3,2.1,8.3,4.1,9.8,6.9c1.5,2.7,1.3,7.1,1,11.8c-0.3,4.6-0.5,9.5,0.8,14.1c1.2,4.5,3.8,8.5,6.3,12.2c2.7,4,5.1,7.8,5.1,11
	s-2.5,7.1-5.1,11c-2.5,3.8-5.1,7.7-6.3,12.2c-1.3,4.7-1,9.5-0.8,14.1c0.3,4.7,0.5,9.1-1,11.8c-1.6,2.7-5.6,4.8-9.8,6.9
	c-4.1,2.1-8.4,4.2-11.7,7.6c-3.3,3.3-5.5,7.6-7.6,11.7c-2.1,4.3-4.1,8.3-6.9,9.8c-2.7,1.5-7.1,1.3-11.8,1c-4.6-0.3-9.5-0.5-14.1,0.8
	c-1.8,0.5-3.6,1.3-5.3,2.1c0,0-0.1,0-0.1,0.1c-2.3,1.3-4.6,2.7-6.8,4.1c-4,2.7-7.8,5.1-11,5.1s-7.1-2.5-11-5.1
	c-2.2-1.4-4.4-2.9-6.8-4.1c0,0-0.1,0-0.1-0.1c-1.7-0.8-3.4-1.6-5.3-2.1c-2.8-0.8-5.5-0.9-8.3-0.9c-2,0-3.9,0.1-5.9,0.3
	c-4.7,0.3-9.1,0.5-11.8-1c-2.7-1.6-4.8-5.6-6.9-9.8c-2.1-4.1-4.2-8.4-7.6-11.7c-3.3-3.3-7.6-5.5-11.7-7.6c-4.3-2.1-8.3-4.1-9.8-6.9
	c-1.5-2.7-1.3-7.1-1-11.8c0.3-4.6,0.5-9.5-0.8-14.1c-1.2-4.5-3.8-8.5-6.3-12.2c-2.7-4-5.1-7.8-5.1-11
	C159.7,212.2,162.1,208.3,164.7,204.3z"/>
<path class="st1" d="M217.9,219.4l29.8,23.9c1.2,0.9,2.5,1.3,3.9,1.3c1.8,0,3.4-0.8,4.7-2.1l40.9-45.9c2.3-2.6,2.1-6.5-0.5-8.9
	c-2.6-2.3-6.5-2.1-8.9,0.5L251,229.8l-25.2-20.1c-2.7-2.2-6.7-1.8-8.8,1C214.9,213.5,215.2,217.2,217.9,219.4z"/>
</svg>
