<?xml version="1.0" encoding="utf-8"?>
<!-- Generator: Adobe Illustrator 22.1.0, SVG Export Plug-In . SVG Version: 6.00 Build 0)  -->
<svg version="1.1" id="Layer_1" xmlns="http://www.w3.org/2000/svg" xmlns:xlink="http://www.w3.org/1999/xlink" x="0px" y="0px"
	 viewBox="0 0 512 512" style="enable-background:new 0 0 512 512;" xml:space="preserve">
<style type="text/css">
	.st0{fill:#E55760;}
</style>
<g>
	<g>
		<path class="st0" d="M370.1,63.5C329.1,22.5,274.7,0,216.8,0S104.4,22.5,63.5,63.5C22.5,104.4,0,158.9,0,216.8
			s22.5,112.3,63.5,153.3c40.9,40.9,95.4,63.5,153.3,63.5s112.3-22.5,153.3-63.5c40.9-40.9,63.5-95.4,63.5-153.3
			S411,104.4,370.1,63.5z M216.8,392.2c-96.7,0-175.4-78.7-175.4-175.4S120.1,41.4,216.8,41.4s175.4,78.7,175.4,175.4
			S313.5,392.2,216.8,392.2z"/>
	</g>
</g>
<g>
	<g>
		<path class="st0" d="M505.9,476.7l-136-136c-8.1-8.1-21.2-8.1-29.2,0c-8.1,8.1-8.1,21.2,0,29.2l136,136c4,4,9.3,6.1,14.6,6.1
			s10.6-2,14.6-6.1C514,497.9,514,484.8,505.9,476.7z"/>
	</g>
</g>
</svg>
