<?xml version="1.0" encoding="utf-8"?>
<!-- Generator: Adobe Illustrator 22.1.0, SVG Export Plug-In . SVG Version: 6.00 Build 0)  -->
<svg version="1.1" id="Layer_1" xmlns="http://www.w3.org/2000/svg" xmlns:xlink="http://www.w3.org/1999/xlink" x="0px" y="0px"
	 viewBox="0 0 512.1 512.1" style="enable-background:new 0 0 512.1 512.1;" xml:space="preserve">
<style type="text/css">
	.st0{fill:#2E3071;}
</style>
<g>
	<g>
		<g>
			<path class="st0" d="M467.7,138.7H44.3C19.8,138.7,0,158.6,0,183v146.2c0,24.3,19.8,44.2,44.3,44.2h423.6
				c24.4,0,44.2-19.8,44.3-44.3V183C512,158.6,492.2,138.7,467.7,138.7z M96,352.1H44.3c-12.1,0-22-9.4-22.8-21.3H96V352.1z
				 M181.3,352.1h-64v-21.3h64V352.1z M298.7,352.1h-96v-21.3h96V352.1z M394.7,352.1H320v-21.3h74.7V352.1z M467.7,352.1H416v-21.3
				h74.6C489.7,342.7,479.8,352.1,467.7,352.1z M490.8,309.4H21.3V183c0-12.7,10.2-22.9,22.9-22.9h423.6c12.7,0,22.9,10.2,22.9,22.9
				v126.4H490.8z"/>
			<path class="st0" d="M448,202.7h-53.3c-5.9,0-10.7,4.8-10.7,10.7s4.8,10.7,10.7,10.7H448c5.9,0,10.7-4.8,10.7-10.7
				S453.9,202.7,448,202.7z"/>
		</g>
	</g>
</g>
</svg>
