<?xml version="1.0" encoding="utf-8"?>
<!-- Generator: Adobe Illustrator 22.1.0, SVG Export Plug-In . SVG Version: 6.00 Build 0)  -->
<svg version="1.1" id="Capa_1" xmlns="http://www.w3.org/2000/svg" xmlns:xlink="http://www.w3.org/1999/xlink" x="0px" y="0px"
	 viewBox="0 0 372.8 372.8" style="enable-background:new 0 0 372.8 372.8;" xml:space="preserve">
<style type="text/css">
	.st0{fill:#FFFFFF;}
</style>
<g>
	<g>
		<path class="st0" d="M363.6,166.6c-15.6-14-48-13.6-59.2-12.8c-31.6-48-77.6-67.6-79.6-68.4c-0.8-0.4-1.6-0.4-2.4-0.4H47.6
			C6.8,85,0.4,165.8,0,175.4v70c0,3.2,2.4,6,6,6h29.2c2.8,20.8,20.8,36.4,42,36.4c21.6,0,39.2-16,42-36.4h132.4
			c2.8,20.8,20.8,36.4,42,36.4s39.2-16,42-36.4h31.2c3.2,0,6-2.8,6-6v-58C372.8,179,369.6,172.2,363.6,166.6z M186.8,97h34.4
			c6.8,3.2,42.4,20.4,69.2,57.2H186.8V97z M82.8,97h92v57.2h-92V97z M47.6,97h23.6v57.2H14.4C19.2,129.4,28.8,97,47.6,97z
			 M76.8,276.2C60,276.2,46,262.6,46,245.4c0-16.8,13.6-30.8,30.8-30.8c16.8,0,30.8,13.6,30.8,30.8C107.6,262.2,94,276.2,76.8,276.2
			z M293.6,276.2c-16.8,0-30.8-13.6-30.8-30.8c0-16.8,13.6-30.8,30.8-30.8c16.8,0,30.4,13.6,30.4,30.4
			C324.4,262.2,310.4,276.2,293.6,276.2z M361.2,239.4H336c-2.8-20.8-20.8-36.4-42-36.4s-39.2,16-42,36.4H119.2
			c-2.8-20.8-20.8-36.4-42-36.4c-21.6,0-39.2,16-42,36.4H12v-63.6c0-2.8,0.4-6,0.8-10h288.8c0,0,0,0,0.4,0h0.4
			c10.4-0.8,41.2-1.2,53.6,10c3.6,3.2,5.2,6.8,5.2,11.6L361.2,239.4L361.2,239.4z"/>
	</g>
</g>
</svg>
