<svg xmlns="http://www.w3.org/2000/svg" viewBox="0 0 137.5 138.25"><defs><style>.cls-1{fill:none;stroke:#c66266;stroke-miterlimit:10;stroke-width:4px;}.cls-2{fill:#c66266;}</style></defs><title>Ресурс 1</title><g id="Слой_2" data-name="Слой 2"><g id="Слой_1-2" data-name="Слой 1"><rect class="cls-1" x="2" y="37" width="133.5" height="99.25" rx="4.79" ry="4.79"/><polyline class="cls-1" points="134.69 39.12 109.75 2 55.5 2 27.75 2 3.38 38.42"/><polygon class="cls-1" points="47.25 37 55.5 2 79.75 2 87.5 37 87.5 63.5 76.5 55.63 68.44 64.56 58 56.75 48.5 63.5 47.25 37"/><line class="cls-1" x1="90.5" y1="120.5" x2="120.75" y2="120.5"/><line class="cls-1" x1="115.75" y1="112.25" x2="115.75" y2="92.25"/><line class="cls-1" x1="95.25" y1="112.25" x2="95.25" y2="92.25"/><polygon class="cls-2" points="101.06 97.59 88.81 97.59 95.25 91.15 101.06 97.59"/><polyline class="cls-2" points="115.72 91.09 121.53 97.53 109.28 97.53"/></g></g></svg>