<?xml version="1.0" encoding="utf-8"?>
<!-- Generator: Adobe Illustrator 22.1.0, SVG Export Plug-In . SVG Version: 6.00 Build 0)  -->
<svg version="1.1" id="Слой_1" xmlns="http://www.w3.org/2000/svg" xmlns:xlink="http://www.w3.org/1999/xlink" x="0px" y="0px"
	 viewBox="0 0 512 512" style="enable-background:new 0 0 512 512;" xml:space="preserve">
<style type="text/css">
	.st0{fill:#FFFFFF;}
</style>
<g>
	<path class="st0" d="M393.2,105.9c9.3-10,15.1-23.6,15.1-38.6c0-31.3-25-56.3-55.3-56.3c-23,0-76,34.4-97.2,65.3
		C233.9,45.4,181.1,12,159,12c-30.2,0-55.3,25-55.3,56.3c0,14.5,5.4,27.6,14.1,37.5H11v134.5h29.2V501h153.3h125.1h153.3V240.4H501
		V105.9C501,105.9,393.2,105.9,393.2,105.9z M353,31.9c18.8,0,34.4,15.6,34.4,36.5c0,17.6-12.3,32.7-28.2,35.9h-84.6
		c-5.4-1.6-7.1-3.5-7.1-4.6C267.5,81.9,330,31.9,353,31.9L353,31.9z M159,31.9c21.9,0,85.5,50,85.5,67.8c0,1.6-3.7,3.4-6.4,4.6
		h-85.2c-15.9-3.2-28.2-18.3-28.2-35.9C124.6,48.5,140.3,31.9,159,31.9L159,31.9z M193.4,480.1H61V240.4h132.4V480.1z M193.4,220.6
		H31.9v-93.8h161.6v93.8H193.4z M297.6,480.1h-83.4V126.7h83.4V480.1z M450.9,480.1H318.5V240.4h132.4V480.1z M480,220.6H318.5
		v-93.8h161.6v93.8H480z"/>
</g>
</svg>
