<?xml version="1.0" encoding="utf-8"?>
<!-- Generator: Adobe Illustrator 22.1.0, SVG Export Plug-In . SVG Version: 6.00 Build 0)  -->
<svg version="1.1" id="Capa_1" xmlns="http://www.w3.org/2000/svg" xmlns:xlink="http://www.w3.org/1999/xlink" x="0px" y="0px"
	 viewBox="0 0 386.6 386.6" style="enable-background:new 0 0 386.6 386.6;" xml:space="preserve">
<style type="text/css">
	.st0{fill:#FFFFFF;}
</style>
<g>
	<g>
		<path class="st0" d="M381.6,108.1c-3-29.6-17.6-55.5-47.2-64.6c-33.9-10.3-70.1-11.8-106.3-13.2c-30.8-1-61.8-2.5-90.2-9.3
			L53.3,0.6H53C42-2.1,31,4.7,28.3,15.6c0,0,0,0,0,0.1L5.1,111.1c-2.6,11,4.1,22,15.1,24.6l84.9,20.4h0.2
			c28.4,6.8,56.4,20,84.5,32.8c7.8,3.6,15.6,7.2,23.4,10.7l-2.9,12l-9.8-2.4c-15.6-3.7-31.2,5.8-35,21.4v0.4l-3,12.5
			c-3.7,15.6,5.8,31.2,21.4,35h0.4l9.4,2.3l-13.5,55.8v0.3c-5.1,21.3,7.6,42.7,28.8,48.4c0.5,0.2,1.1,0.3,1.7,0.4
			c21.1,4.6,42-8.2,47.6-29c0.2-0.5,0.3-1.1,0.4-1.6l31.2-129.4h0.6h0.8c30.1,5,54.7-11.3,70.7-36.3
			C377.1,165.1,384,136.6,381.6,108.1z M101,137.9l-76.9-18.5c-0.9-0.2-1.7-0.8-2.2-1.6c-0.5-0.8-0.7-1.8-0.4-2.7l23-95.5
			c0.2-0.9,0.8-1.7,1.6-2.2c0.8-0.5,1.8-0.7,2.7-0.4h0.4l76.5,18.5L101,137.9z M188.2,262.3h-0.3c-6.5-1.6-10.5-8.2-9-14.7l3-12.4
			v-0.3c1.6-6.5,8.2-10.5,14.7-9l9.7,2.4l-8,32.8l-0.9,3.6L188.2,262.3z M242.2,351.9c-3,12.6-15.7,20.4-28.3,17.4h-0.3
			c-12.3-3.2-19.8-15.6-17-28v-0.4l15.4-64l12.7-52.8l4-17.2c14.5,6.1,29.4,11.1,44.6,15.1L242.2,351.9z M268.2,202.9
			c-24.4-8.1-48.2-17.8-71.3-29.2c-26.1-12-52.3-24-79.5-31.7l12.4-51.4l12.4-51.4c27.7,5.7,56.4,6.8,85.3,8
			c26.2,0.4,52.3,2.7,78.1,6.8C311.1,67.3,338.7,143.6,268.2,202.9z M362,146.6c-2.8,12-7.6,23.4-14.2,33.8
			c-12.6,19.6-31.3,32.5-53.7,28.8h-0.6l-5.6-1.1c57.8-55.4,45.9-121.6,37.2-149.5l4.4,1.3c22,6.7,33,26.9,35.3,50.2
			C365.9,122.4,364.9,134.7,362,146.6z"/>
	</g>
</g>
</svg>
