<?xml version="1.0" encoding="utf-8"?>
<!-- Generator: Adobe Illustrator 22.1.0, SVG Export Plug-In . SVG Version: 6.00 Build 0)  -->
<svg version="1.1" id="Capa_1" xmlns="http://www.w3.org/2000/svg" xmlns:xlink="http://www.w3.org/1999/xlink" x="0px" y="0px"
	 viewBox="0 0 511.8 511.8" style="enable-background:new 0 0 511.8 511.8;" xml:space="preserve">
<style type="text/css">
	.st0{fill:#FFFFFF;}
</style>
<g>
	<g>
		<g>
			<path class="st0" d="M426.5,281.4c-4.7,0-8.5,3.8-8.5,8.5v196.3c0,4.7-3.8,8.5-8.5,8.5h-85.3v-128c0-14.1-11.5-25.6-25.6-25.6
				h-85.3c-14.1,0-25.6,11.5-25.6,25.6v128h-85.3c-4.7,0-8.5-3.8-8.5-8.5V289.9c0-4.7-3.8-8.5-8.5-8.5s-8.5,3.8-8.5,8.5v196.3
				c0,14.1,11.5,25.6,25.6,25.6h307.2c14.1,0,25.6-11.5,25.6-25.6V289.9C435.1,285.2,431.2,281.4,426.5,281.4z M307.1,494.7H204.7
				v-128c0-4.7,3.8-8.5,8.5-8.5h85.3c4.7,0,8.5,3.8,8.5,8.5L307.1,494.7L307.1,494.7z"/>
			<path class="st0" d="M480.3,219.8L274,7.5c-10.1-10-26.3-10-36.4,0L31.4,219.8c-7.4,7.6-9.5,18.9-5.3,28.7
				c3.9,9.6,13.2,15.8,23.5,15.8h2.9c6.1-0.1,12-2.3,16.6-6.4c0.6-0.4,1.2-0.8,1.7-1.3L255.9,65.9l185.2,190.8
				c0.5,0.5,1,0.9,1.6,1.3c4.6,4,10.4,6.3,16.5,6.3h2.9c10.3,0,19.6-6.2,23.5-15.8C489.8,238.8,487.7,227.4,480.3,219.8z
				 M469.9,241.9c-1.3,3.2-4.4,5.3-7.8,5.3h-2.9c-2.3,0-4.4-0.9-6-2.6c-0.1-0.1-0.2-0.1-0.2-0.1c-0.1-0.1-0.1-0.2-0.2-0.2L262,47.7
				l-0.1-0.1l0-0.1c-0.4-0.3-0.9-0.6-1.3-0.9c-0.4-0.4-0.9-0.7-1.4-0.9c-0.5-0.2-1.1-0.3-1.6-0.3c-1-0.4-2.1-0.4-3.2,0
				c-0.5,0.1-1.1,0.2-1.6,0.3c-0.5,0.3-1,0.6-1.4,0.9c-0.5,0.2-0.9,0.5-1.3,0.9l-0.1,0.1l-0.1,0.1L58.9,244.3
				c-0.1,0.1-0.1,0.1-0.2,0.2s-0.2,0.1-0.2,0.2c-1.6,1.6-3.7,2.6-6,2.6h-2.9c-3.4,0-6.5-2.1-7.8-5.3c-1.5-3.5-0.8-7.5,1.8-10.2h0
				L249.9,19.4c1.6-1.6,3.7-2.5,5.9-2.5c2.2,0,4.4,0.9,5.9,2.5l206.3,212.3C470.7,234.4,471.4,238.4,469.9,241.9z"/>
			<path class="st0" d="M290,298.4c14.1,0,25.6-11.5,25.6-25.6v-59.7c0-14.1-11.5-25.6-25.6-25.6h-68.3c-14.1,0-25.6,11.5-25.6,25.6
				v59.7c0,14.1,11.5,25.6,25.6,25.6H290z M213.2,272.8v-59.7c0-4.7,3.8-8.5,8.5-8.5H290c4.7,0,8.5,3.8,8.5,8.5v59.7
				c0,4.7-3.8,8.5-8.5,8.5h-68.3C217,281.4,213.2,277.5,213.2,272.8z"/>
			<path class="st0" d="M230.3,417.9h-8.5c-4.7,0-8.5,3.8-8.5,8.5s3.8,8.5,8.5,8.5h8.5c4.7,0,8.5-3.8,8.5-8.5S235,417.9,230.3,417.9
				z"/>
		</g>
	</g>
</g>
</svg>
