<?xml version="1.0" encoding="utf-8"?>
<!-- Generator: Adobe Illustrator 22.1.0, SVG Export Plug-In . SVG Version: 6.00 Build 0)  -->
<svg version="1.1" id="Capa_1" xmlns="http://www.w3.org/2000/svg" xmlns:xlink="http://www.w3.org/1999/xlink" x="0px" y="0px"
	 viewBox="0 0 512 512" style="enable-background:new 0 0 512 512;" xml:space="preserve">
<style type="text/css">
	.st0{fill:#FFFFFF;}
</style>
<g>
	<g>
		<path class="st0" d="M512,416.1c0-0.1,0-0.1,0-0.2c0-0.3-0.1-0.6-0.1-0.9c0,0,0-0.1,0-0.1c-0.1-0.3-0.1-0.5-0.2-0.8
			c0-0.1,0-0.1-0.1-0.2c-0.1-0.2-0.2-0.4-0.3-0.7c0,0,0-0.1,0-0.1L471.1,334V73.7c0-8-6.5-14.5-14.5-14.5H55.4
			c-8,0-14.5,6.5-14.5,14.5V334L0.8,413.1c0,0,0,0.1,0,0.1c-0.1,0.2-0.2,0.4-0.3,0.7c0,0.1-0.1,0.1-0.1,0.2
			c-0.1,0.3-0.2,0.5-0.2,0.8c0,0,0,0.1,0,0.1c-0.1,0.3-0.1,0.6-0.1,0.9c0,0.1,0,0.1,0,0.2c0,0.2,0,0.3,0,0.5v19
			c0,9.5,7.7,17.2,17.2,17.2h477.5c9.5,0,17.2-7.7,17.2-17.2v-19C512,416.4,512,416.2,512,416.1z M55.9,74.2h400.2v254.1H55.9V74.2z
			 M53,343.3H459l33.3,65.7H327.5l-8.3-30c-1.7-6.1-7.3-10.4-13.6-10.4h-99.2c-6.3,0-11.9,4.3-13.6,10.4l-8.3,30H19.7L53,343.3z
			 M311.9,409H200.1l7-25.4H305L311.9,409z M497,435.6c0,1.2-1,2.2-2.2,2.2H17.2c-1.2,0-2.2-1-2.2-2.2V424h482V435.6z"/>
	</g>
</g>
<g>
	<g>
		<path class="st0" d="M432.6,213.8c-4.1,0-7.5,3.4-7.5,7.5v76.1H86.9v-76.1c0-4.1-3.4-7.5-7.5-7.5s-7.5,3.4-7.5,7.5v79.3
			c0,6.5,5.3,11.8,11.8,11.8h344.6c6.5,0,11.8-5.3,11.8-11.8v-79.3C440.1,217.1,436.7,213.8,432.6,213.8z"/>
	</g>
</g>
<g>
	<g>
		<path class="st0" d="M428.3,90.2H83.7c-6.5,0-11.8,5.3-11.8,11.8v79.3c0,4.1,3.4,7.5,7.5,7.5s7.5-3.4,7.5-7.5v-76.1h338.2v76.1
			c0,4.1,3.4,7.5,7.5,7.5s7.5-3.4,7.5-7.5V102C440.1,95.5,434.8,90.2,428.3,90.2z"/>
	</g>
</g>
</svg>
