<?xml version="1.0" encoding="utf-8"?>
<!-- Generator: Adobe Illustrator 22.1.0, SVG Export Plug-In . SVG Version: 6.00 Build 0)  -->
<svg version="1.1" id="Capa_1" xmlns="http://www.w3.org/2000/svg" xmlns:xlink="http://www.w3.org/1999/xlink" x="0px" y="0px"
	 viewBox="0 0 463 463" style="enable-background:new 0 0 463 463;" xml:space="preserve">
<style type="text/css">
	.st0{fill:#2E3071;}
</style>
<g>
	<path class="st0" d="M367.5,0h-272C87,0,80,7,80,15.5v432c0,8.5,7,15.5,15.5,15.5h272c8.5,0,15.5-7,15.5-15.5v-432
		C383,7,376,0,367.5,0z M95,447.5v-432c0-0.3,0.2-0.5,0.5-0.5H200v433H95.5C95.2,448,95,447.8,95,447.5z M368,447.5
		c0,0.3-0.2,0.5-0.5,0.5H215V15h152.5c0.3,0,0.5,0.2,0.5,0.5V447.5z"/>
	<path class="st0" d="M175.5,136c-4.1,0-7.5,3.4-7.5,7.5v176c0,4.1,3.4,7.5,7.5,7.5s7.5-3.4,7.5-7.5v-176
		C183,139.4,179.6,136,175.5,136z"/>
	<path class="st0" d="M239.5,136c-4.1,0-7.5,3.4-7.5,7.5v176c0,4.1,3.4,7.5,7.5,7.5s7.5-3.4,7.5-7.5v-176
		C247,139.4,243.6,136,239.5,136z"/>
	<path class="st0" d="M151.5,184h-40c-4.1,0-7.5,3.4-7.5,7.5v80c0,4.1,3.4,7.5,7.5,7.5h40c4.1,0,7.5-3.4,7.5-7.5v-80
		C159,187.4,155.6,184,151.5,184z M144,199v9h-25v-9H144z M119,264v-41h25v41H119z"/>
</g>
</svg>
