<?xml version="1.0" encoding="utf-8"?>
<!-- Generator: Adobe Illustrator 22.1.0, SVG Export Plug-In . SVG Version: 6.00 Build 0)  -->
<svg version="1.1" id="Слой_1" xmlns="http://www.w3.org/2000/svg" xmlns:xlink="http://www.w3.org/1999/xlink" x="0px" y="0px"
	 viewBox="0 0 472.8 472.8" style="enable-background:new 0 0 472.8 472.8;" xml:space="preserve">
<style type="text/css">
	.st0{fill:#FFFFFF;stroke:#FFFFFF;stroke-width:4;stroke-miterlimit:10;}
</style>
<g>
	<path class="st0" d="M355,7.3H117.8c-16,0-29,13-29,29v400.2c0,16,13,29,29,29H355c16,0,29-13,29-29V36.3C384,20.3,371,7.3,355,7.3
		z M103.4,80.2h266.1v303.1H103.4V80.2z M117.8,21.8H355c8,0,14.5,6.5,14.5,14.5v34.2H103.4V36.3C103.4,28.3,109.8,21.8,117.8,21.8z
		 M355,451H117.8c-8,0-14.5-6.5-14.5-14.5V393h266.1v43.6C369.5,444.5,363,451,355,451z"/>
	<path class="st0" d="M236.4,399.4c-13.1,0-23.8,10.7-23.8,23.8s10.7,23.8,23.8,23.8s23.8-10.7,23.8-23.8S249.5,399.4,236.4,399.4z
		 M236.4,437.3c-7.8,0-14.1-6.3-14.1-14.1c0-7.8,6.3-14.1,14.1-14.1s14.1,6.3,14.1,14.1S244.2,437.3,236.4,437.3z"/>
	<path class="st0" d="M203.5,53.5h65.9c2.7,0,4.8-2.2,4.8-4.8c0-2.7-2.2-4.8-4.8-4.8h-65.9c-2.7,0-4.8,2.2-4.8,4.8
		C198.6,51.3,200.8,53.5,203.5,53.5z"/>
	<path class="st0" d="M186,53.5c1.3,0,2.5-0.5,3.4-1.4s1.4-2.2,1.4-3.4c0-1.3-0.5-2.5-1.4-3.4s-2.2-1.4-3.4-1.4
		c-1.3,0-2.5,0.5-3.4,1.4s-1.4,2.2-1.4,3.4c0,1.3,0.5,2.5,1.4,3.4C183.5,52.9,184.7,53.5,186,53.5z"/>
</g>
</svg>
