<?xml version="1.0" encoding="utf-8"?>
<!-- Generator: Adobe Illustrator 22.1.0, SVG Export Plug-In . SVG Version: 6.00 Build 0)  -->
<svg version="1.1" id="Capa_1" xmlns="http://www.w3.org/2000/svg" xmlns:xlink="http://www.w3.org/1999/xlink" x="0px" y="0px"
	 viewBox="0 0 463 463" style="enable-background:new 0 0 463 463;" xml:space="preserve">
<style type="text/css">
	.st0{fill:#FFFFFF;}
</style>
<g>
	<path class="st0" d="M447.5,72h-432C7,72,0,79,0,87.5v256C0,352,7,359,15.5,359H152v17h-48.5c-4.1,0-7.5,3.4-7.5,7.5
		s3.4,7.5,7.5,7.5h256c4.1,0,7.5-3.4,7.5-7.5s-3.4-7.5-7.5-7.5H311v-17h136.5c8.5,0,15.5-7,15.5-15.5v-256C463,79,456,72,447.5,72z
		 M296,376H167v-17h129V376z M448,343.5c0,0.3-0.2,0.5-0.5,0.5h-432c-0.3,0-0.5-0.2-0.5-0.5v-256c0-0.3,0.2-0.5,0.5-0.5h432
		c0.3,0,0.5,0.2,0.5,0.5V343.5z"/>
	<path class="st0" d="M423.5,104h-384c-4.1,0-7.5,3.4-7.5,7.5v208c0,4.1,3.4,7.5,7.5,7.5h384c4.1,0,7.5-3.4,7.5-7.5v-208
		C431,107.4,427.6,104,423.5,104z M416,312H47V119h369V312z"/>
</g>
</svg>
