<?xml version="1.0" encoding="utf-8"?>
<!-- Generator: Adobe Illustrator 22.1.0, SVG Export Plug-In . SVG Version: 6.00 Build 0)  -->
<svg version="1.1" id="Слой_1" xmlns="http://www.w3.org/2000/svg" xmlns:xlink="http://www.w3.org/1999/xlink" x="0px" y="0px"
	 viewBox="0 0 77.3 77.8" style="enable-background:new 0 0 77.3 77.8;" xml:space="preserve">
<style type="text/css">
	.st0{fill:none;stroke:#EA7378;stroke-width:6.25;}
	.st1{fill:#EA7378;}
</style>
<path class="st0" d="M3.5,38.8c0-19.4,15.7-35.1,35.2-35.1c19.4,0,35.2,15.7,35.2,35.1S58.1,73.9,38.7,73.9
	C19.2,73.9,3.5,58.2,3.5,38.8z"/>
<g>
	<path class="st1" d="M41.6,54c0.8,0.8,1.2,1.7,1.2,2.8s-0.4,2-1.2,2.8c-0.8,0.8-1.7,1.2-2.9,1.2c-1.1,0-2.1-0.4-2.9-1.2
		c-0.8-0.8-1.2-1.7-1.2-2.7c0-1.1,0.4-2,1.2-2.8c0.8-0.8,1.7-1.2,2.9-1.2C39.9,52.9,40.8,53.3,41.6,54z M41.7,17.9V48h-5.9V17.9
		H41.7z"/>
</g>
</svg>
