<?xml version="1.0" encoding="utf-8"?>
<!-- Generator: Adobe Illustrator 22.1.0, SVG Export Plug-In . SVG Version: 6.00 Build 0)  -->
<svg version="1.1" id="Слой_1" xmlns="http://www.w3.org/2000/svg" xmlns:xlink="http://www.w3.org/1999/xlink" x="0px" y="0px"
	 viewBox="0 0 789.5 666.3" style="enable-background:new 0 0 789.5 666.3;" xml:space="preserve">
<style type="text/css">
	.st0{fill:#E65A64;}
</style>
<title>box 2</title>
<g id="Слой_2_1_">
	<g id="Layer_1">
		<path class="st0" d="M748,533.3c-2-5.3-7.8-8-13.1-6l-106.1,39.1c-5.3,1.9-8,7.8-6,13.1c1.9,5.3,7.8,8,13.1,6l0,0L742,546.4
			C747.3,544.5,750,538.6,748,533.3z"/>
		<path class="st0" d="M612.8,583.2c-2-5.3-7.8-8-13.1-6l-4.5,1.7c-5.4,1.7-8.4,7.4-6.7,12.8c1.7,5.4,7.4,8.4,12.8,6.7
			c0.3-0.1,0.7-0.2,1-0.4l4.5-1.7C612,594.4,614.7,588.5,612.8,583.2C612.8,583.2,612.8,583.2,612.8,583.2z"/>
		<path class="st0" d="M748,491.8c-2-5.3-7.8-8-13.1-6l-83.8,30.9c-5.3,1.9-8,7.8-6,13.1c1.9,5.3,7.8,8,13.1,6l83.9-31
			C747.3,502.9,750,497,748,491.8z"/>
		<path class="st0" d="M748,450.6c-2-5.3-7.8-8-13.1-6l-83.8,30.9c-5.3,1.9-8,7.8-6,13.1c1.9,5.3,7.8,8,13.1,6l0,0l83.9-31
			C747.3,461.8,750,455.9,748,450.6z"/>
		<path class="st0" d="M782.8,264L537,173.3c-2.3-0.8-4.8-0.8-7.1,0L284.1,264l0,0c-4,1.5-6.7,5.3-6.7,9.6v291.8
			c0,4.3,2.7,8.1,6.7,9.6l245.8,90.7c2.3,0.8,4.8,0.8,7.1,0l0,0L782.8,575c4-1.5,6.7-5.3,6.7-9.6V273.6
			C789.5,269.3,786.8,265.5,782.8,264z M523.3,641.5l-225.4-83.2V288.2l45.9,16.9v123.6c0,4.3,2.7,8.1,6.7,9.6L460.6,479
			c5.3,1.9,11.2-0.8,13.1-6c0.4-1.1,0.6-2.3,0.6-3.5V353.3l49,18.1L523.3,641.5L523.3,641.5z M453.9,345.8v109l-89.8-33.1v-109
			L453.9,345.8z M383.4,298l80.7-29.8l80.7,29.8l-80.7,29.8L383.4,298z M533.4,353.4l-40-14.8l84.3-31.1c5.3-1.9,8-7.8,6-13.1
			c-1-2.8-3.2-5-6-6l-110.1-40.7c-2.3-0.8-4.8-0.8-7.1,0l-106.7,39.4l-36.7-13.5l216.3-79.8l216.3,79.8L533.4,353.4z M769,558.3
			l-225.4,83.2V371.4L769,288.2V558.3z"/>
		<path class="st0" d="M348.5,107.8v110.1c3-2.9,6.9-4.5,11-4.6c4.4,0,8.6,1.9,11.5,5.2V107.4c-1.2-25.3-21.9-45.3-47.2-45.5h-35.2
			c-4.2,0-7.6-3.4-7.6-7.6c0,0,0,0,0,0c0-11.3-9.2-20.5-20.5-20.5h-20.4c-3,0-5.7-1.8-6.9-4.5C224.4,9.8,205.9,0,184.9,0
			c-20.5-0.8-39.5,10.8-48.2,29.3c-1.2,2.7-3.9,4.4-6.9,4.4h-20c-11,0-20,9-20,20v0.6c0,4.2-3.4,7.6-7.6,7.6h-35
			C21.9,62.2,1.2,82.1,0,107.4v314.5c0,27.8,22.5,50.3,50.3,50.3h207.8c-0.3-1.8-0.6-3.6-0.7-5.5c-0.3-3.9,0.4-7.7,0.8-11.6
			c0.2-1.9,0.6-3.7,1.3-5.5H54.8c-17.8,0-32.3-14.5-32.3-32.3V107.8c0-0.3,0-0.6,0-0.8c1.3-12.7,12-22.4,24.7-22.6h35.1
			c4.2,0,7.6,3.4,7.6,7.6l0,0v20.6c0,0.3,0,0.7,0.1,1c0.8,6.1,6.2,10.5,12.3,10.2h165.8c6.2,0.3,11.7-4,12.8-10.1
			c0.1-0.4,0.1-0.8,0.1-1.3V91.9c0-4.2,3.4-7.6,7.6-7.6l0,0h35.1c12.8,0.2,23.4,10,24.7,22.7C348.5,107.3,348.5,107.5,348.5,107.8z
			 M258.6,93.6c0,4.2-3.4,7.6-7.6,7.6l0,0H120c-4.2,0-7.6-3.4-7.6-7.6V63.8c0-4.2,3.4-7.6,7.6-7.6h22.7c0.4,0,0.8,0,1.2-0.1
			c5.1-0.9,9.2-4.9,10.1-10c3.3-14.4,15.8-24.7,30.5-25.3h0.8c14.6,0.6,26.9,11,30,25.3c1,5.5,5.6,9.7,11.2,10.1H251
			c4.2,0,7.6,3.4,7.6,7.6L258.6,93.6z"/>
		<path class="st0" d="M142.2,251.3c-4.2-4.4-11.2-4.7-15.7-0.6l-36,34.3l-15.2-15.7c-4.2-4.4-11.2-4.7-15.7-0.6
			c-4.4,4.6-4.4,11.7,0,16.3l23,23.6c2,2.3,4.9,3.5,7.9,3.4c3,0,5.8-1.3,7.9-3.4l43.8-41.6c4.3-4,4.6-10.7,0.7-15.1c0,0,0,0,0,0
			C142.6,251.7,142.4,251.5,142.2,251.3z"/>
		<path class="st0" d="M250.4,275.5H170c-3.9,0-7,5-7,11.2s3.1,11.2,7,11.2h80.4c3.9,0,7-5,7-11.2S254.3,275.5,250.4,275.5z"/>
		<path class="st0" d="M142.2,161.4c-4.2-4.4-11.2-4.7-15.7-0.6l-36,34.3l-15.1-15.8c-4.2-4.4-11.2-4.7-15.7-0.6
			c-4.4,4.6-4.4,11.7,0,16.3l23,23.6c2,2.2,4.9,3.5,7.9,3.4c3,0,5.8-1.3,7.9-3.4l43.8-41.6c4.3-4,4.6-10.7,0.7-15.1c0,0,0,0,0,0
			C142.6,161.8,142.4,161.6,142.2,161.4z"/>
		<path class="st0" d="M303.5,185.5H174.2c-6.2,0-11.2,5-11.2,11.2c0,6.2,5,11.2,11.2,11.2c0,0,0,0,0,0h129.3
			c6.2,0,11.2-5,11.2-11.2C314.8,190.6,309.7,185.5,303.5,185.5C303.5,185.5,303.5,185.5,303.5,185.5z"/>
		<path class="st0" d="M142.2,341.2c-4.2-4.4-11.2-4.7-15.7-0.6l-36,34.3l-15.1-15.8c-4.2-4.4-11.2-4.7-15.7-0.6
			c-4.4,4.6-4.4,11.7,0,16.3l23,23.6c2,2.2,4.9,3.5,7.9,3.4c3,0,5.8-1.3,7.9-3.4l43.8-41.6c4.3-4,4.6-10.7,0.7-15.1c0,0,0,0,0,0
			C142.6,341.6,142.4,341.4,142.2,341.2z"/>
		<path class="st0" d="M250.4,365.4H170c-3.9,0-7,5-7,11.2s3.1,11.2,7,11.2h80.4c3.9,0,7-5,7-11.2S254.3,365.4,250.4,365.4z"/>
		<path class="st0" d="M263.5,449.7H183c-3.9,0-7,5-7,11.2s3.1,11.2,7,11.2h80.5c3.9,0,7-5,7-11.2S267.3,449.7,263.5,449.7z"/>
		<path class="st0" d="M371,221.2v-80.5c0-3.9-5-7-11.2-7s-11.2,3.1-11.2,7v80.4c0,3.9,5,7,11.2,7S371,225.1,371,221.2z"/>
	</g>
</g>
</svg>
