<svg 
 xmlns="http://www.w3.org/2000/svg"
 xmlns:xlink="http://www.w3.org/1999/xlink"
 width="57px" height="62px">
<path fill-rule="evenodd"  fill="rgb(226, 109, 109)"
 d="M28.893,61.670 C28.777,61.730 28.646,61.758 28.512,61.758 C28.392,61.758 28.260,61.730 28.139,61.670 C-0.138,47.409 0.308,14.454 0.316,14.132 C0.328,13.664 0.655,13.274 1.077,13.203 C1.252,13.183 19.394,10.283 27.890,1.100 C28.232,0.729 28.788,0.729 29.131,1.100 C37.642,10.291 55.773,13.183 55.941,13.203 C56.370,13.274 56.697,13.664 56.700,14.132 C56.712,14.454 57.163,47.409 28.893,61.670 ZM28.512,3.102 C20.369,11.246 5.648,14.328 2.093,14.961 C2.223,19.938 4.062,47.159 28.512,59.754 C52.961,47.159 54.809,19.938 54.933,14.961 C51.376,14.328 36.667,11.246 28.512,3.102 ZM27.651,42.288 L27.638,42.288 C27.202,42.288 26.807,42.085 26.564,41.745 L19.506,32.067 C19.081,31.476 19.214,30.651 19.804,30.222 C20.400,29.791 21.233,29.924 21.646,30.515 L27.594,38.678 L39.773,20.861 C40.195,20.268 41.016,20.111 41.627,20.524 C42.222,20.927 42.378,21.759 41.959,22.355 L28.722,41.713 C28.483,42.064 28.086,42.283 27.651,42.288 Z"/>
</svg>