<?xml version="1.0" encoding="utf-8"?>
<!-- Generator: Adobe Illustrator 22.1.0, SVG Export Plug-In . SVG Version: 6.00 Build 0)  -->
<svg version="1.1" id="Слой_1" xmlns="http://www.w3.org/2000/svg" xmlns:xlink="http://www.w3.org/1999/xlink" x="0px" y="0px"
	 viewBox="0 0 603 598.2" style="enable-background:new 0 0 603 598.2;" xml:space="preserve">
<style type="text/css">
	.st0{fill:none;stroke:#E65A64;stroke-width:17;stroke-miterlimit:10;}
	.st1{fill:#E65A64;}
</style>
<title>check and box</title>
<g id="Слой_2_1_">
	<g id="Слой_1-2">
		<path class="st0" d="M429.5,320.1c-2.1-2.9-5.6-2.9-7.7,0l-20.2,27.3h-14.1V8.5h14.1l20.2,27.3c2.1,2.9,5.6,2.9,7.7,0l20.2-27.3
			H467l20.2,27.3c2.1,2.9,5.6,2.9,7.7,0L515,8.5h17.3l20.2,27.3c2.1,2.9,5.6,2.9,7.7,0l20.2-27.3h14.1v338.9h-14.1l-20.2-27.3
			c-2.1-2.9-5.6-2.9-7.7,0l-20.2,27.3H515l-20.2-27.3c-2.1-2.9-5.6-2.9-7.7,0L467,347.4h-17.3L429.5,320.1z"/>
		<path class="st1" d="M438.3,79.2h111v13.4h-111V79.2z"/>
		<polygon points="245.8,573.4 245.8,573.4 245.8,573.4 		"/>
		<path class="st1" d="M438.3,108.9h55.5v13.4h-55.5V108.9z"/>
		<path class="st1" d="M508.6,108.9h55.5v13.4h-55.5V108.9z"/>
		<path class="st1" d="M438.3,143.2h55.5v13.4h-55.5V143.2z"/>
		<path class="st1" d="M491.6,374.9v115.4l-225.4,83.2V303.4l100.1-37c4-1.5,6.7-5.3,6.7-9.6l0,0c0-5.6-4.6-10.2-10.2-10.2
			c-1.2,0-2.4,0.2-3.5,0.6L256,285.4l-40-14.8l84.3-31.1c5.3-1.9,8-7.8,6-13.1c-1-2.8-3.2-5-6-6l-110.2-40.6c-2.3-0.8-4.8-0.8-7.1,0
			L76.4,219.1l-36.7-13.6L256,125.7l103.3,38.1c5.3,1.9,11.2-0.8,13.1-6c0.4-1.1,0.6-2.3,0.6-3.5l0,0c0-4.3-2.7-8.1-6.7-9.6
			l-106.8-39.4c-2.3-0.8-4.8-0.8-7.1,0L6.7,196l0,0c-2.6,0.9-4.7,2.9-5.8,5.5C0.3,203,0,204.6,0,206.2v291.1c0,4.3,2.7,8.1,6.7,9.6
			l245.8,90.7c2.3,0.8,4.8,0.8,7.1,0l0,0l245.8-90.7c4-1.5,6.7-5.3,6.7-9.6V373.8c0-4.7-3.8-8.6-8.6-8.6c-0.1,0-0.2,0-0.3,0
			l-2.3,0.1C495.7,365.5,491.6,369.7,491.6,374.9z M186.6,200.2l80.7,29.8l-80.6,29.8L106,229.9L186.6,200.2z M86.6,244.6l89.8,33.1
			v108.9l-89.7-33.1L86.6,244.6z M245.8,573.4L245.8,573.4L20.4,490.2V220.2l45.9,16.9v123.6c0,4.3,2.7,8.1,6.7,9.6l110.1,40.6
			c5.3,1.9,11.2-0.8,13.1-6c0.4-1.1,0.6-2.3,0.6-3.5V285.3l49,18.1L245.8,573.4L245.8,573.4L245.8,573.4z"/>
		<path class="st1" d="M438.3,184.5h111v13.4h-111V184.5z"/>
		<path class="st1" d="M438.3,214.2h66v13.4h-66V214.2z"/>
		<path class="st1" d="M438.3,248.5h92v13.4h-92V248.5z"/>
	</g>
</g>
</svg>
