<svg xmlns="http://www.w3.org/2000/svg" xmlns:xlink="http://www.w3.org/1999/xlink" width="67px" height="66px">
								<path fill-rule="evenodd" fill="rgb(227, 114, 114)" d="M56.096,18.847 L59.716,26.991 C59.916,27.427 59.768,27.938 59.375,28.214 L37.719,43.373 C37.544,43.488 37.334,43.556 37.122,43.556 C37.038,43.556 36.948,43.551 36.862,43.526 C36.568,43.449 36.322,43.253 36.179,42.975 L32.398,35.101 L23.276,41.359 C23.097,41.480 22.892,41.535 22.687,41.535 C22.484,41.535 22.285,41.481 22.105,41.367 L0.458,27.219 C0.168,27.029 -0.006,26.714 -0.001,26.373 C0.013,26.031 0.180,25.715 0.477,25.533 L8.230,20.659 L0.504,16.137 C0.193,15.961 0.013,15.632 -0.001,15.283 C-0.006,14.930 0.171,14.604 0.477,14.414 L23.159,0.268 C23.485,0.074 23.891,0.064 24.218,0.247 L33.028,5.088 L40.691,0.276 C40.989,0.079 41.387,0.064 41.709,0.218 L64.381,11.332 C64.717,11.495 64.930,11.805 64.962,12.159 C64.990,12.520 64.820,12.860 64.526,13.068 L56.096,18.847 ZM37.520,41.024 L57.498,27.042 L54.372,20.027 L34.110,33.926 L37.520,41.024 ZM2.909,26.397 L22.673,39.307 L30.688,33.800 L10.206,21.820 L2.909,26.397 ZM23.747,2.302 L3.002,15.241 L10.172,19.438 L31.062,6.317 L23.747,2.302 ZM12.146,20.599 L32.545,32.533 L53.089,18.436 L33.099,7.436 L12.146,20.599 ZM41.311,2.283 L35.071,6.203 L54.981,17.148 L61.907,12.377 L41.311,2.283 ZM11.007,50.798 L31.479,61.977 L31.479,35.974 L31.908,35.672 L33.526,39.103 L33.526,61.878 L37.077,59.713 C37.378,60.328 37.711,60.936 38.083,61.506 L33.033,64.570 L33.025,64.570 L33.025,64.578 C32.867,64.681 32.679,64.719 32.501,64.719 C32.337,64.719 32.163,64.681 32.009,64.606 L32.003,64.592 C32.003,64.592 32.003,64.592 31.992,64.592 L9.494,52.308 C9.166,52.133 8.960,51.788 8.960,51.408 L8.960,33.530 L11.007,34.897 L11.007,50.798 ZM56.004,31.302 L56.004,36.872 C55.247,36.693 54.660,36.644 53.764,36.526 L53.764,32.881 L56.004,31.302 ZM52.644,39.099 C60.057,39.099 66.085,45.097 66.085,52.464 C66.085,59.839 60.057,65.833 52.644,65.833 C45.232,65.833 39.203,59.839 39.203,52.464 C39.203,45.097 45.232,39.099 52.644,39.099 ZM52.644,63.782 C58.912,63.782 64.001,58.706 64.001,52.464 C64.001,46.235 58.912,41.156 52.644,41.156 C46.377,41.156 41.273,46.235 41.273,52.464 C41.273,58.706 46.377,63.782 52.644,63.782 ZM47.806,51.281 L50.757,55.219 L57.479,46.203 C57.827,45.736 58.489,45.647 58.949,45.996 C59.408,46.342 59.507,47.003 59.145,47.470 L51.582,57.616 C51.388,57.879 51.085,58.036 50.757,58.036 C50.423,58.036 50.115,57.879 49.905,57.616 L46.136,52.548 C45.789,52.075 45.872,51.409 46.345,51.056 C46.803,50.715 47.469,50.804 47.806,51.281 Z" />
							</svg>