<svg xmlns="http://www.w3.org/2000/svg" viewBox="0 0 134.05 138.3"><defs><style>.cls-1{fill:none;stroke:#E26D6D;stroke-linecap:round;stroke-linejoin:round;stroke-width:3.3px;}</style></defs><title>Ресурс 1</title><g id="Слой_2" data-name="Слой 2"><g id="Слой_1-2" data-name="Слой 1"><path class="cls-1" d="M61.64,136.65H9.37a7.71,7.71,0,0,1-7.72-7.72V9.37A7.71,7.71,0,0,1,9.37,1.65H62.48l33.9,33.83V51.15"/><path class="cls-1" d="M62.48,1.65V27.36a6.46,6.46,0,0,0,6.46,6.46H95"/><line class="cls-1" x1="19.65" y1="50.9" x2="51.4" y2="50.9"/><line class="cls-1" x1="19.65" y1="69.15" x2="51.4" y2="69.15"/><line class="cls-1" x1="19.65" y1="85.9" x2="51.4" y2="85.9"/><line class="cls-1" x1="62.15" y1="50.77" x2="79.73" y2="50.77"/><line class="cls-1" x1="62.15" y1="69.02" x2="79.73" y2="69.02"/><path class="cls-1" d="M81.4,85.9C82.15,85.4,95,62.65,95,62.65L107.9,85.9h24.5L115.24,107l3.41,25.18L95,121.4,72.15,133.65l3.39-26.83L57.9,85.9Z"/></g></g></svg>