<svg version="1.1" id="Слой_1" xmlns="http://www.w3.org/2000/svg" xmlns:xlink="http://www.w3.org/1999/xlink" x="0px"
							 y="0px" viewBox="0 0 440.1 445.3" style="enable-background:new 0 0 440.1 445.3;" xml:space="preserve">
								<style type="text/css">
									.st0 {
										fill: #E26D6D;
										stroke: #E26D6D;
										stroke-miterlimit: 10;
									}

									.st1 {
										fill: #E26D6D;
										stroke: #E26D6D;
										stroke-width: 3;
										stroke-miterlimit: 10;
									}
								</style>
								<title>technic</title>
								<g id="Слой_2_1_">
									<g id="Capa_1">
										<path class="st0" d="M365,0H93c-8.6,0-15.5,6.9-15.5,15.5v167.3c1.3-0.3,2.7-0.5,4-0.5c3.9,0,7.8,1.2,11,3.5V15.5
									   c0-0.3,0.2-0.5,0.5-0.5h104.5v228.4h1c5.3,0,10.4,2.2,14,6.1V15H365c0.3,0,0.5,0.2,0.5,0.5v235c2-1.6,4.3-2.8,6.8-3.4l5.2-0.7
									   c1,0,2,0,3,0.2v-231C380.5,6.9,373.6,0,365,0z" />
										<path class="st0" d="M237,136c-4.1,0-7.5,2.1-7.5,4.7v110.5c0,2.6,3.4,4.7,7.5,4.7s7.5-2.1,7.5-4.7V140.7
									   C244.5,138.1,241.1,136,237,136z" />
										<path class="st1" d="M430.6,278H206c-4.4,0-8.1,3.6-8.1,8.1v133c0,4.4,3.6,8.1,8.1,8.1h71v8.8h-25.3c-2.2,0-3.9,1.8-3.9,3.9
									   c0,2.1,1.7,3.9,3.9,3.9h133.1c2.2,0,3.9-1.8,3.9-3.9c0-2.1-1.7-3.9-3.9-3.9h-25.2v-8.8h71c4.4,0,8.1-3.6,8.1-8.1V286
									   C438.6,281.6,435,278,430.6,278z M351.8,436h-67v-8.8h67V436z M430.8,419.1c0,0.1-0.1,0.3-0.3,0.3c0,0,0,0,0,0H206
									   c-0.1,0-0.3-0.1-0.3-0.3l0,0V286c0-0.1,0.1-0.3,0.3-0.3l0,0h224.6c0.1,0,0.3,0.1,0.3,0.3c0,0,0,0,0,0L430.8,419.1z" />
										<path class="st0" d="M418.1,294.6H218.5c-2.2,0-3.9,1.7-3.9,3.9v108.1c0,2.2,1.7,3.9,3.9,3.9h199.6c2.2,0,3.9-1.7,3.9-3.9V298.5
									   C422,296.3,420.2,294.6,418.1,294.6z M414.2,402.7H222.4V302.4h191.8V402.7z" />
										<path class="st1" d="M175.4,197.9H14c-6.9,0-12.5,5.6-12.5,12.5c0,0,0,0,0,0v220.9c0,6.9,5.6,12.5,12.5,12.5c0,0,0,0,0,0h161.4
									   c6.9,0,12.5-5.6,12.5-12.5V210.4C187.9,203.5,182.3,197.9,175.4,197.9z M9.4,248.3h170.5v170.5H9.5L9.4,248.3z M179.9,210.3v30
									   h-111v-34.5h106.5C177.9,205.9,179.9,207.9,179.9,210.3L179.9,210.3z M14,205.9h47v34.5H9.5v-30C9.5,207.9,11.5,205.9,14,205.9
									   C14,205.9,14,205.9,14,205.9z M175.4,435.9H14c-2.5,0-4.5-2-4.5-4.5v-4.5h170.5v4.5C179.9,433.8,177.9,435.8,175.4,435.9
									   L175.4,435.9z" />
										<path class="st1" d="M94.7,265.9c-32.7,0-59.2,26.5-59.2,59.2s26.5,59.2,59.2,59.2s59.2-26.5,59.2-59.2l0,0
									   C153.9,292.4,127.4,265.9,94.7,265.9z M94.7,376.3c-28.3,0-51.2-23-51.2-51.3c0-28.3,23-51.2,51.3-51.2c28.3,0,51.2,23,51.2,51.2
									   C146,353.4,123,376.3,94.7,376.3z" />
										<path class="st0" d="M94.7,235.6c6.9,0,12.5-5.6,12.5-12.5c0-6.9-5.6-12.5-12.5-12.5c-6.9,0-12.5,5.6-12.5,12.5
									   C82.2,230,87.8,235.6,94.7,235.6z M94.7,218.6c2.5,0,4.5,2,4.5,4.5c0,2.5-2,4.5-4.5,4.5c-2.5,0-4.5-2-4.5-4.5l0,0
									   C90.2,220.6,92.2,218.6,94.7,218.6z" />
										<path class="st0" d="M22.5,235.6H48c2.2,0,4-1.8,4-4s-1.8-4-4-4H22.5c-2.2,0-4,1.8-4,4S20.3,235.6,22.5,235.6z" />
										<path class="st0" d="M120.2,227.1h12.8c2.2,0,4-1.8,4-4s-1.8-4-4-4h-12.8c-2.2,0-4,1.8-4,4S118,227.1,120.2,227.1z" />
										<path class="st0" d="M149.9,227.1h12.8c2.2,0,4-1.8,4-4s-1.8-4-4-4h-12.8c-2.2,0-4,1.8-4,4S147.7,227.1,149.9,227.1z" />
										<path class="st0" d="M94.7,282.9c-23.3,0-42.2,18.9-42.2,42.2s18.9,42.2,42.2,42.2s42.2-18.9,42.2-42.2l0,0
									   C136.9,301.8,118,282.9,94.7,282.9z M94.7,359.4c-18.9,0-34.2-15.4-34.2-34.3c0-18.9,15.4-34.2,34.3-34.2
									   c18.9,0,34.2,15.4,34.2,34.3C129,344,113.6,359.3,94.7,359.4L94.7,359.4z" />
										<path class="st0" d="M85,73c-4.1,0-7.5,2.1-7.5,4.7v110.5c0,2.6,3.4,4.7,7.5,4.7s7.5-2.1,7.5-4.7V77.7C92.5,75.1,89.1,73,85,73z" />
										<path class="st0" d="M205,151.8c-4.1,0-7.5,2.1-7.5,4.7V267c0,2.6,3.4,4.7,7.5,4.7s7.5-2.1,7.5-4.7V156.5
									   C212.5,153.9,209.1,151.8,205,151.8z" />
										<path class="st0" d="M373,152c-4.1,0-7.5,2.1-7.5,4.7v110.5c0,2.6,3.4,4.7,7.5,4.7s7.5-2.1,7.5-4.7V156.8
									   C380.5,154.1,377.1,152,373,152z" />
									</g>
								</g>
							</svg>