<?xml version="1.0" encoding="utf-8"?>
<!-- Generator: Adobe Illustrator 22.1.0, SVG Export Plug-In . SVG Version: 6.00 Build 0)  -->
<svg version="1.1" id="Capa_1" xmlns="http://www.w3.org/2000/svg" xmlns:xlink="http://www.w3.org/1999/xlink" x="0px" y="0px"
	 viewBox="0 0 420.5 407.6" style="enable-background:new 0 0 420.5 407.6;" xml:space="preserve">
<style type="text/css">
	.st0{fill:#E65A64;stroke:#E65A64;stroke-width:2;stroke-miterlimit:10;}
</style>
<g>
	<g>
		<path class="st0" d="M386,295.2c-2.9-9.7-8.3-18.5-15.5-25.7c-11.5-11.6-27.1-18-43.5-18c-8.3,0-16.6,1.7-24.3,5l-60.4-60.4
			l80.2-79.6l19-0.5c2.3-0.1,4.4-1.3,5.5-3.3l27.3-45.8c1.6-2.6,1.2-6-1-8.2l-23.5-23.5c-2.2-2.2-5.5-2.6-8.2-1l-45.7,27.2
			c-2,1.2-3.2,3.3-3.3,5.5l-0.5,19L212,165.7l-54.9-54.9c5.8-33.4-16.7-65.2-50.1-71c-15.5-2.7-31.4,0.7-44.5,9.4
			c-3.1,2.1-3.9,6.2-1.8,9.3c0.6,0.8,1.3,1.6,2.3,2.1l30.5,17c6.7,3.9,8.1,15.3,2.6,24.9s-15.9,14.6-22.7,10.9L45.2,98.1
			c-3.3-1.8-7.3-0.6-9.1,2.7c-0.6,1.1-0.9,2.3-0.8,3.7c2.1,33.8,31.3,59.6,65.1,57.5c7-0.4,13.8-2.1,20.3-4.9l49.9,49.9L149,228.7
			l-4.9-4.9c-5.5-5.2-14-5.2-19.4,0l-6.7,6.7c-5.1,5-5.5,13.1-0.8,18.5l-79.4,79.2c-5.4,5.1-5.5,13.6-0.4,19
			c0.2,0.2,0.3,0.3,0.4,0.4l22.7,22.7c5.1,5.4,13.6,5.5,19,0.4c0.2-0.2,0.3-0.3,0.4-0.4l79.5-79.4c5.4,4.7,13.5,4.4,18.5-0.8
			l6.7-6.7c5.4-5.1,5.5-13.6,0.4-19c-0.2-0.2-0.3-0.3-0.4-0.4l-4.9-4.9l21.5-22l65.1,65.1c-5.6,33.5,17,65.1,50.4,70.7
			c19.8,3.4,40-3.3,54-17.6c2.4-2.8,2.2-7-0.6-9.5c-0.8-0.7-1.6-1.1-2.4-1.4l-37.7-10c-3.7-1.2-6.6-4-7.9-7.7
			c-1.9-5-2.2-10.7-0.7-15.9c2.9-10.6,11.7-18,19.3-16l37.4,10.1c0.6,0.1,1.2,0.1,1.8,0c3.7,0.1,6.7-2.9,6.8-6.6
			C386.7,297.3,386.5,296.2,386,295.2z M303.3,93.3c1.2-1.2,1.9-2.9,1.9-4.5l0.5-18l38.1-22.7l16.1,16.2l-22.2,38l-18.3,0.7
			c-1.7,0.1-3.4,0.8-4.5,1.9l-81.9,81.8l-11.6-11.6L303.3,93.3z M70.4,360.8l-23-22.9l79.8-79.6l11.6,11.6l11,11.4L70.4,360.8z
			 M168.7,280.3l-8.9-8.9l-3.4-3.4l-28.2-28.4l6.7-6.7l40.3,40.8L168.7,280.3z M169.9,249.7l-11.6-11.6l21.7-21.7l11.6,11.6
			L169.9,249.7z M344,281.9c-2-0.5-4-0.8-6.1-0.8c-14.6,1.2-26.7,11.9-29.6,26.4c-2.3,8.1-1.8,16.7,1.3,24.5
			c2.9,7.5,9.1,13.3,16.9,15.4l25,6.7c-22.7,13.6-52.2,6.1-65.8-16.7c-6.4-10.7-8.3-23.4-5.5-35.6c0.5-2.3-0.2-4.6-1.8-6.2
			L126.9,144.2c-2.2-2-5.4-2.4-7.9-0.9c-7,3.7-14.7,5.5-22.5,5.5c-20.2,0-38.3-12.6-45.1-31.6l15.3,8.6c3.6,2,7.6,3,11.7,3
			c12.4-0.8,23.6-8,29.2-19.1c9.1-16.3,5.5-35.8-7.9-43.2L80.1,55.3c25-8.9,52.5,4.1,61.3,29c3.1,8.6,3.6,18,1.6,27
			c-0.5,2.3,0.2,4.6,1.8,6.2l151.6,151.6c2.1,2.1,5.3,2.6,7.9,1.2c7-3.7,14.7-5.5,22.5-5.5c17,0,32.7,9,41.4,23.7L344,281.9z"/>
	</g>
</g>
</svg>
