<?xml version="1.0" encoding="utf-8"?>
<!-- Generator: Adobe Illustrator 22.1.0, SVG Export Plug-In . SVG Version: 6.00 Build 0)  -->
<svg version="1.1" id="Слой_1" xmlns="http://www.w3.org/2000/svg" xmlns:xlink="http://www.w3.org/1999/xlink" x="0px" y="0px"
	 viewBox="0 0 482.4 506.5" style="enable-background:new 0 0 482.4 506.5;" xml:space="preserve">
<style type="text/css">
	.st0{fill:#E26D6D;}
</style>
<title>train anp plane</title>
<g id="Слой_2_1_">
	<g id="Capa_1">
		<path class="st0" d="M183.4,208.8c-3.5,0-6.3,2.8-6.3,6.3s2.8,6.3,6.3,6.3c3.5,0,6.3-2.8,6.3-6.3l0,0
			C189.8,211.6,186.9,208.8,183.4,208.8z"/>
		<path class="st0" d="M82.5,208.8c-3.5,0-6.3,2.8-6.3,6.3c0,3.5,2.8,6.3,6.3,6.3s6.3-2.8,6.3-6.3l0,0
			C88.8,211.6,86,208.8,82.5,208.8z"/>
		<path class="st0" d="M264.2,495.8l-41.7-43.6c16.9-0.6,30.4-14.5,30.4-31.5V233.5c0-21.1-14.9-39.2-35.6-43.3
			c-22.4-4.4-45.2-6.7-68.1-6.7h-33.3c-22.6,0-45.1,2.2-67.2,6.6c-20.6,4.2-35.4,22.3-35.5,43.3v187.2c0,17.1,13.7,31.1,30.8,31.5
			L1.8,495.8c-2.4,2.5-2.4,6.5,0.1,8.9c1.2,1.1,2.7,1.8,4.4,1.8h45.1c2,0,3.9-1,5.1-2.6l19.1-26.4h115.3l19.1,26.4
			c1.2,1.6,3.1,2.6,5.1,2.6h44.5c3.5,0,6.3-2.8,6.3-6.3C265.9,498.5,265.3,497,264.2,495.8L264.2,495.8z M25.8,420.7V233.5
			c0-15,10.6-28,25.4-30.9c21.3-4.3,43-6.4,64.7-6.4h33.3c22,0,44,2.2,65.7,6.4c14.8,2.9,25.4,15.9,25.4,30.9v187.1
			c0,10.4-8.5,18.9-18.9,18.9H44.7C34.3,439.6,25.8,431.1,25.8,420.7z M48.2,493.8h-27l40.3-41.6h16.8L48.2,493.8z M84.8,464.8
			l9.1-12.6h78.7l9.1,12.6H84.8z M218.4,493.8l-30.2-41.6H205l39.8,41.6H218.4z"/>
		<path class="st0" d="M221.3,234H44.7c-3.5,0-6.3,2.8-6.3,6.3V345c0,3.5,2.8,6.3,6.3,6.3h176.6c3.5,0,6.3-2.8,6.3-6.3l0,0V240.3
			C227.6,236.8,224.8,234,221.3,234z M126.7,338.7H51v-92.1h75.7L126.7,338.7z M215,338.7h-75.7v-92.1H215L215,338.7z"/>
		<path class="st0" d="M158.2,208.8h-50.5c-3.5-0.1-6.4,2.6-6.6,6.1c-0.1,3.5,2.6,6.4,6.1,6.6c0.2,0,0.3,0,0.5,0h50.5
			c3.5,0.1,6.4-2.6,6.6-6.1c0.1-3.5-2.6-6.4-6.1-6.6C158.6,208.8,158.4,208.8,158.2,208.8z"/>
		<path class="st0" d="M202.4,370.2c-13.9,0-25.2,11.3-25.2,25.2s11.3,25.2,25.2,25.2s25.2-11.3,25.2-25.2
			C227.6,381.5,216.3,370.2,202.4,370.2z M202.4,408.1c-7,0-12.6-5.7-12.6-12.6c0-7,5.7-12.6,12.6-12.6c7,0,12.6,5.7,12.6,12.6
			C215,402.4,209.3,408.1,202.4,408.1z"/>
		<path class="st0" d="M63.6,370.2c-13.9,0-25.2,11.3-25.2,25.2s11.3,25.2,25.2,25.2s25.2-11.3,25.2-25.2
			C88.8,381.5,77.5,370.2,63.6,370.2z M63.6,408.1c-7,0-12.6-5.6-12.6-12.6c0-7,5.6-12.6,12.6-12.6s12.6,5.6,12.6,12.6c0,0,0,0,0,0
			C76.2,402.4,70.6,408,63.6,408.1z"/>
		<path class="st0" d="M158.2,376.5h-50.5c-3.5-0.1-6.4,2.6-6.6,6.1s2.6,6.4,6.1,6.6c0.2,0,0.3,0,0.5,0h50.5
			c3.5,0.1,6.4-2.6,6.6-6.1s-2.6-6.4-6.1-6.6C158.6,376.5,158.4,376.5,158.2,376.5z"/>
		<path class="st0" d="M158.2,401.8h-50.5c-3.5-0.1-6.4,2.6-6.6,6.1s2.6,6.4,6.1,6.6c0.2,0,0.3,0,0.5,0h50.5
			c3.5,0.1,6.4-2.6,6.6-6.1s-2.6-6.4-6.1-6.6C158.6,401.8,158.4,401.8,158.2,401.8z"/>
		<path class="st0" d="M421.9,13.5c-38,0-81.7,20-83.6,20.8c-3.4,1.6-4.9,5.6-3.3,8.9c1.6,3.4,5.6,4.9,8.9,3.3
			c0.4-0.2,42.9-19.6,77.9-19.6c34.3,0,47.1,8.2,47.1,13.4c0,25.1-210.6,107.6-255.6,107.6c-7.6,0-27.8,0-37.3-1.7
			c6.4-4.7,13.1-8.9,20.2-12.5c3.3-1.7,4.6-5.8,2.9-9.1c-0.1-0.2-0.2-0.4-0.4-0.6l-23.8-35.8l6.1-6.1l49.5,24.7c1.9,0.9,4.1,0.9,6,0
			l40.4-20.2c3.4-1.5,5-5.4,3.5-8.8s-5.4-5-8.8-3.5c-0.2,0.1-0.5,0.2-0.7,0.4l-37.3,18.7L182.7,68c-2.6-1.3-5.7-0.8-7.8,1.3
			l-13.4,13.4c-2.3,2.3-2.6,5.8-0.9,8.5l22.8,34.2c-23.9,13.4-23.9,20-23.9,22.6c0,12.1,17.2,13.4,53.8,13.4
			c35.8,0,269.1-78.8,269.1-121.1C482.4,32.3,476.5,13.5,421.9,13.5z"/>
		<path class="st0" d="M361.3,46.3c-0.3-2.6-2.2-4.8-4.8-5.6L222,0.3c-2.4-0.7-5-0.1-6.7,1.7l-26.9,26.9c-2.6,2.6-2.6,6.9,0,9.5
			c0.4,0.4,0.9,0.8,1.4,1.1L284,93.3c2.1,1.2,4.7,1.2,6.8-0.1L358,52.9C360.3,51.5,361.6,48.9,361.3,46.3z M287.3,79.7l-83.1-47.5
			L222,14.3l116,34.8L287.3,79.7z"/>
		<path class="st0" d="M462.2,20.2c-29,0-44.4,14.8-45.1,15.4c-2.7,2.6-2.7,6.9-0.1,9.5c2.6,2.7,6.9,2.7,9.5,0.1l0,0
			c0.5-0.5,12.4-11.6,35.7-11.6c3.7,0,6.7-3,6.7-6.7C468.9,23.2,465.9,20.2,462.2,20.2z"/>
		<path class="st0" d="M428.4,180l-20.2-80.7c-1-3.6-4.8-5.6-8.3-4.6c-3.4,1-5.4,4.4-4.7,7.9L414,178l-17.3,8.6l-57.1-69.8
			c-2.4-2.9-6.6-3.3-9.5-1s-3.3,6.6-1,9.5l60.5,74c2,2.5,5.5,3.2,8.3,1.8l26.9-13.4C427.7,186.2,429.2,183.1,428.4,180z"/>
	</g>
</g>
</svg>
