<?xml version="1.0" encoding="utf-8"?>
<!-- Generator: Adobe Illustrator 22.1.0, SVG Export Plug-In . SVG Version: 6.00 Build 0)  -->
<svg version="1.1" id="Layer_1" xmlns="http://www.w3.org/2000/svg" xmlns:xlink="http://www.w3.org/1999/xlink" x="0px" y="0px"
	 viewBox="0 0 512 512" style="enable-background:new 0 0 512 512;" xml:space="preserve">
<style type="text/css">
	.st0{fill:#E65A64;stroke:#E65A64;stroke-width:8;stroke-miterlimit:10;}
</style>
<g>
	<g>
		<path class="st0" d="M445,208.5h-6.5v-97.7c0-3.6-2.9-6.5-6.5-6.5h-19.5V58.6c0-3.6-2.9-6.5-6.5-6.5h-61.2l-4.8-9.5
			c-1.5-3.1-5.1-4.4-8.2-3.1l-19.2,7.6L280.9,2.7c-2-2.7-5.7-3.5-8.6-1.8l-86.7,51.5c-0.4-0.1-0.7-0.2-1.1-0.2H93.2
			c-18,0-32.6,14.6-32.6,32.5v299.7c0,3.6,2.9,6.5,6.5,6.5H432c3.6,0,6.5-2.9,6.5-6.5v-97.7h6.5c3.6,0,6.5-2.9,6.5-6.5V215
			C451.5,211.4,448.6,208.5,445,208.5z M399.4,65.1v39.1h-28.6l-19.5-39.1H399.4z M331.1,53.9l25.2,50.4H205.2L331.1,53.9z
			 M273.8,15.2l26.4,37l-130.1,52.1h-46.7L273.8,15.2z M93.2,65.1h70.7l-66,39.1h-4.7c-10.8,0-19.5-8.8-19.5-19.5
			S82.4,65.1,93.2,65.1z M425.5,377.9H73.6V110.6c5.5,4.1,12.2,6.6,19.5,6.6h78.1l0,0l0,0h254.1v91.3h-39.1
			c-21.5,0-39.1,17.6-39.1,39.1s17.6,39.1,39.1,39.1h39.1L425.5,377.9L425.5,377.9z M438.5,273.7h-52.2c-14.4,0-26-11.7-26-26
			c0-14.4,11.7-26,26-26h52.2L438.5,273.7L438.5,273.7z"/>
	</g>
</g>
</svg>
