<?xml version="1.0" encoding="utf-8"?>
<!-- Generator: Adobe Illustrator 22.1.0, SVG Export Plug-In . SVG Version: 6.00 Build 0)  -->
<svg version="1.1" id="Capa_1" xmlns="http://www.w3.org/2000/svg" xmlns:xlink="http://www.w3.org/1999/xlink" x="0px" y="0px"
	 viewBox="0 0 331.5 331.5" style="enable-background:new 0 0 331.5 331.5;" xml:space="preserve">
<style type="text/css">
	.st0{fill:#E26D6D;}
</style>
<g>
	<g>
		<path class="st0" d="M298.8,57.1L197.6,2.3c-9.6-5.2-22.8-1.2-28,8.4l-59.2,110h-72c-9.2,0-16.4,7.2-16.4,16.4v28.8v149.2
			c0,9.2,7.2,16.4,16.4,16.4h230c9.2,0,16.4-7.2,16.4-16.4v-41.6h6.8c3.6,0,6.4-2.8,6.4-6.4v-47.6c0-3.6-2.8-6.4-6.4-6.4h-6.8v-46.8
			c0-7.6-5.6-14.4-12.8-16l35.2-65.2C312.4,75.1,308.8,62.7,298.8,57.1z M226.8,32.7l-63.2,117.2h-18l67.6-124.4L226.8,32.7z
			 M181.2,16.7c2-3.6,6.8-5.2,10.4-3.2l10,5.6l-70.4,130.8h-22L181.2,16.7z M34.4,136.7c0-1.2,1.6-3.2,3.6-3.2h65.2l-8.8,16H38
			c-1.2,0-2.4,0-3.6,0.4C34.4,149.9,34.4,136.7,34.4,136.7z M271.6,315.1c0,2-1.6,3.6-3.6,3.6H38c-2,0-3.6-1.6-3.6-3.6V166.3
			c0-2,1.6-3.6,3.6-3.6h60.4H124h46.8h90h6.8c2,0,3.6,1.6,3.6,3.6v46.8h-24.4l0,0c-10.8,0-19.2,8.8-19.2,19.2v22
			c0,10.8,8.8,19.2,19.2,19.2h24.8L271.6,315.1L271.6,315.1z M284.4,225.9h0.4v34.8h-0.4h-37.6c-3.6,0-6.4-2.8-6.4-6.4v-22
			c0-3.6,2.8-6.4,6.4-6.4H284.4z M295.6,78.7l-38.4,71.2H178l60-110.8l54.4,29.6C296.4,70.3,297.6,75.1,295.6,78.7z"/>
	</g>
</g>
<g>
	<g>
		<path class="st0" d="M271.2,72.7l-3.2-1.6c-8-4.4-18.8-1.2-23.2,6.8l-4,7.6c-2,4-2.8,8.8-1.2,13.2c1.2,4.4,4.4,8,8.4,10l3.2,1.6
			c2.4,1.2,5.2,2,8,2c6.4,0,12-3.6,15.2-8.8l4-7.6C282.4,87.5,279.2,77.1,271.2,72.7z M266.8,89.9l-4,7.6c-1.2,2-4,2.8-6,1.6l-3.2-2
			c-0.8-0.4-1.6-1.6-2-2.4c-0.4-1.2-0.4-2.4,0.4-3.2l4-7.6c0.8-1.2,2.4-2.4,4-2.4c0.8,0,1.2,0,2,0.4l3.2,1.6
			C266.8,85.1,267.6,87.5,266.8,89.9z"/>
	</g>
</g>
</svg>
