<?xml version="1.0" encoding="utf-8"?>
<!-- Generator: Adobe Illustrator 22.1.0, SVG Export Plug-In . SVG Version: 6.00 Build 0)  -->
<svg version="1.1" id="Слой_1" xmlns="http://www.w3.org/2000/svg" xmlns:xlink="http://www.w3.org/1999/xlink" x="0px" y="0px"
	 viewBox="0 0 934 934" style="enable-background:new 0 0 934 934;" xml:space="preserve">
<style type="text/css">
	.st0{fill:#E65A64;}
</style>
<g id="surface1">
	<path class="st0" d="M872.7,420.3h-31.1V171.3c0-8.6-7-15.6-15.6-15.6h-94.3l-31-98.1c-1.3-4.1-4.2-7.5-8.1-9.3
		c-3.9-1.9-8.3-2.1-12.3-0.5L553.6,96.1L496.7,7.2c-2.2-3.5-5.8-6-9.9-6.8c-4.1-0.9-8.3-0.1-11.8,2.2L241.3,155.7H110
		c-60.1,0.1-108.9,48.8-109,109V825c0.1,60.1,48.8,108.9,109,109H826c8.6,0,15.6-7,15.6-15.6V731.6h31.1c34.4,0,62.3-27.9,62.3-62.3
		V482.6C935,448.2,907.1,420.3,872.7,420.3z M872.7,451.4c17.2,0,31.1,13.9,31.1,31.1c0,17.2-13.9,31.1-31.1,31.1h-31.1v-62.3H872.7
		z M810.4,186.8v155.7h-19.7l-49.2-155.7H810.4z M758.1,342.5h-45.4L669.6,213c-2.1-6.4-8.1-10.7-14.8-10.6
		c-15.8,0.1-31-6.2-42.1-17.4l-9.1-9.1c-4.3-4.3-10.7-5.7-16.4-3.6L126.6,342.5H110c-20.8,0-40.6-8.3-55.2-23.1L676.1,82.8
		L758.1,342.5z M679.9,342.5H216.3l372.3-137.6l2.1,2.1c14.2,14.3,32.7,23.4,52.7,25.8L679.9,342.5z M478.9,37.2l44.9,70.2
		L160.8,245.7L478.9,37.2z M110,186.8h83.8L36.7,289.8c-2.9-8.1-4.4-16.6-4.5-25.1C32.2,221.7,67,186.9,110,186.8z M810.4,902.9H110
		C67,902.8,32.2,868,32.1,825V340.9c0.1,0.1,0.3,0.3,0.4,0.4c1.2,1.2,2.5,2.3,3.8,3.5c1.3,1.2,2.6,2.5,4,3.6
		c1.4,1.2,2.7,2.1,4.1,3.1c1.4,1,2.8,2.2,4.3,3.2c1.5,1,2.9,1.8,4.4,2.7c1.5,0.9,3,1.9,4.7,2.8c1.6,0.9,3.2,1.6,4.8,2.3
		c1.6,0.8,3.1,1.6,4.8,2.3c1.7,0.7,3.5,1.3,5.3,2c1.8,0.6,3.1,1.2,4.8,1.7c2,0.6,4,1.1,6,1.6c1.6,0.4,3,0.8,4.5,1.2
		c2.3,0.5,4.7,0.8,7,1.1c1.3,0.2,2.6,0.4,3.9,0.6c3.7,0.4,7.4,0.5,11.1,0.5h20.2l0.2,0.6l1.7-0.6h678.3v140.1H639.2
		c-60.2,0-109,48.8-109,109c0,60.2,48.8,109,109,109h171.2V902.9z M903.8,669.4c0,17.2-13.9,31.1-31.1,31.1H639.2
		c-43,0-77.8-34.8-77.8-77.8c0-43,34.8-77.8,77.8-77.8h233.5c3.8,0,7.5-0.4,11.2-1.1c0.9-0.2,1.8-0.3,2.6-0.5
		c3.5-0.8,7-1.8,10.3-3.2l0.5-0.3c2.2-0.9,4.4-2,6.5-3.2V669.4z"/>
	<path class="st0" d="M336.8,420.3h62.3v31.1h-62.3V420.3z"/>
	<path class="st0" d="M212.3,420.3h62.3v31.1h-62.3V420.3z"/>
	<path class="st0" d="M710.4,420.3h53.4v31.1h-53.4V420.3z"/>
	<path class="st0" d="M585.9,420.3h62.3v31.1h-62.3V420.3z"/>
	<path class="st0" d="M91.6,418.1l-7.3,30.2c8.4,2,17,3.1,25.7,3.1h40v-31.1h-40C103.8,420.3,97.6,419.6,91.6,418.1z"/>
	<path class="st0" d="M461.3,420.3h62.3v31.1h-62.3V420.3z"/>
	<path class="st0" d="M91.6,822.9L84.3,853c8.4,2,17,3.1,25.7,3.1h40V825h-40C103.8,825,97.6,824.3,91.6,822.9z"/>
	<path class="st0" d="M710.4,825h53.4v31.1h-53.4V825z"/>
	<path class="st0" d="M336.8,825h62.3v31.1h-62.3V825z"/>
	<path class="st0" d="M585.9,825h62.3v31.1h-62.3V825z"/>
	<path class="st0" d="M212.3,825h62.3v31.1h-62.3V825z"/>
	<path class="st0" d="M461.3,825h62.3v31.1h-62.3V825z"/>
	<path class="st0" d="M639.2,576c-25.8,0-46.7,20.9-46.7,46.7c0,25.8,20.9,46.7,46.7,46.7s46.7-20.9,46.7-46.7
		C685.9,596.9,665,576,639.2,576z M639.2,638.2c-8.6,0-15.6-7-15.6-15.6c0-8.6,7-15.6,15.6-15.6c8.6,0,15.6,7,15.6,15.6
		C654.8,631.3,647.8,638.2,639.2,638.2z"/>
</g>
</svg>
